<svg xmlns="http://www.w3.org/2000/svg" width="64" height="64" viewBox="0 0 64 64" fill="none">
  <rect x="2" y="2" width="60" height="60" rx="18" fill="#0a0d13"></rect>
  <rect x="2" y="2" width="60" height="60" rx="18" fill="#f6851b" fill-opacity="0.10" stroke="#f6851b" stroke-opacity="0.30"></rect>
  <g transform="translate(14,14) scale(1.4)" stroke="#f6851b" stroke-width="2" stroke-linecap="round" stroke-linejoin="round" fill="none">
    <path d="M20 13c0 5-3.5 7.5-7.66 8.95a1 1 0 0 1-.67-.01C7.5 20.5 4 18 4 13V6a1 1 0 0 1 1-1c2 0 4.5-1.2 6.24-2.72a1.17 1.17 0 0 1 1.52 0C14.51 3.81 17 5 19 5a1 1 0 0 1 1 1z"></path>
    <path d="m9 12 2 2 4-4"></path>
  </g>
</svg>